<?xml version="1.0" standalone="no"?><!DOCTYPE svg PUBLIC "-//W3C//DTD SVG 1.1//EN" "http://www.w3.org/Graphics/SVG/1.1/DTD/svg11.dtd"><svg class="icon" width="128px" height="128.00px" viewBox="0 0 1024 1024" version="1.1" xmlns="http://www.w3.org/2000/svg"><path fill="#333333" d="M439.136 62.752a151.584 151.584 0 0 1 136.192-24.032l264.864 80.352c65.504 19.904 109.536 79.584 109.536 148.512v653.216h23.072c28.288 0 51.2 23.104 51.2 51.616 0 28.48-22.912 51.584-51.2 51.584H51.2C22.912 1024 0 1000.896 0 972.416c0-28.48 22.912-51.616 51.2-51.616h17.696v-402.56c0-59.2 32.64-112.384 85.248-138.816l222.88-111.968V187.232c0-49.568 22.656-94.944 62.112-124.48z m-62.08 320l-177.248 89.024c-17.6 8.832-28.512 26.624-28.512 46.464v402.56h205.76V382.752z m168.736-245.248a50.56 50.56 0 0 0-45.536 8.032c-13.216 9.92-20.8 25.12-20.8 41.696v733.568h367.872V267.584c0-23.072-14.72-43.04-36.672-49.696z m184.64 592.832c28.256 0 51.2 23.072 51.2 51.584 0 28.48-22.944 51.584-51.2 51.584h-134.08c-28.256 0-51.2-23.104-51.2-51.584 0-28.48 22.944-51.584 51.2-51.584z m0-205.44c28.256 0 51.2 23.104 51.2 51.584 0 28.48-22.944 51.616-51.2 51.616h-134.08c-28.256 0-51.2-23.104-51.2-51.616 0-28.48 22.944-51.584 51.2-51.584z m0-213.12c28.256 0 51.2 23.136 51.2 51.616s-22.944 51.616-51.2 51.616h-134.08c-28.256 0-51.2-23.104-51.2-51.616 0-28.48 22.944-51.584 51.2-51.584z"  /></svg>