<?xml version="1.0" standalone="no"?><!DOCTYPE svg PUBLIC "-//W3C//DTD SVG 1.1//EN" "http://www.w3.org/Graphics/SVG/1.1/DTD/svg11.dtd"><svg class="icon" width="128px" height="128.00px" viewBox="0 0 1024 1024" version="1.1" xmlns="http://www.w3.org/2000/svg"><path fill="#333333" d="M464.864 1024c-5.504 0-10.88-0.704-16-2.016a63.232 63.232 0 0 1-15.936 2.016H65.504A64.064 64.064 0 0 1 1.6 959.904v-307.68a115.328 115.328 0 0 1 115.04-115.392h3.36V242.88l-62.656 12.608A48 48 0 0 1 0.96 217.76a48.064 48.064 0 0 1 37.568-56.576L837.28 0.96a48.064 48.064 0 0 1 18.784 94.272l-102.816 20.608v263.936h155.744A115.328 115.328 0 0 1 1024 495.2v464.736A64.064 64.064 0 0 1 960.096 1024H464.864z m444.128-548.064H516a19.2 19.2 0 0 0-19.2 19.232v432.672h92.672v-128.192a83.296 83.296 0 0 1 83.072-83.328h89.472a83.296 83.296 0 0 1 83.072 83.328l-0.032 128.192h83.104v-432.64a19.2 19.2 0 0 0-19.2-19.264zM381.76 632.992H116.64a19.2 19.2 0 0 0-19.2 19.2v275.648h303.552v-275.616a19.2 19.2 0 0 0-19.2-19.232z m367.424 179.488h-63.872v115.36h63.872V812.48zM657.408 135.04L215.84 223.648v313.184h165.952c6.56 0 12.96 0.544 19.2 1.6v-43.264a115.328 115.328 0 0 1 115.008-115.36l141.408-0.032V135.072zM321.472 244.032a48 48 0 0 1 47.936 48.064v51.36a48 48 0 0 1-47.936 48.064 48 48 0 0 1-47.904-48.064V292.096a48 48 0 0 1 47.904-48.064z"  /></svg>