<?xml version="1.0" standalone="no"?><!DOCTYPE svg PUBLIC "-//W3C//DTD SVG 1.1//EN" "http://www.w3.org/Graphics/SVG/1.1/DTD/svg11.dtd"><svg class="icon" width="128px" height="128.00px" viewBox="0 0 1024 1024" version="1.1" xmlns="http://www.w3.org/2000/svg"><path fill="#333333" d="M923.392 736.32V372.96h49.472c23.104 0 43.36-15.744 49.376-38.368a52.224 52.224 0 0 0-23.616-58.368L543.808 7.04a50.528 50.528 0 0 0-51.072-0.224L27.84 275.968A52.224 52.224 0 0 0 3.84 334.4c5.92 22.752 26.24 38.592 49.408 38.592h52.48V736.32h-3.68C45.76 736.32 0 782.72 0 839.872v48.544C0 945.536 45.76 992 102.016 992h819.968C978.24 992 1024 945.536 1024 888.416v-48.544c0-56.64-44.992-102.752-100.608-103.552z m-102.24 0h-76.64V372.96h76.64V736.32zM463.36 372.96V736.32h-76.576V372.96h76.608z m102.272 0h76.608V736.32h-76.608V372.96z m-47.872-261.12l265.856 157.312h-537.6l271.744-157.344z m-309.888 261.12h76.64V736.32H207.904V372.96z m-105.664 515.52l-0.224-48.352 819.744-0.256 0.224 48.32-819.744 0.288z"  /></svg>