<?xml version="1.0" standalone="no"?><!DOCTYPE svg PUBLIC "-//W3C//DTD SVG 1.1//EN" "http://www.w3.org/Graphics/SVG/1.1/DTD/svg11.dtd"><svg class="icon" width="128px" height="128.00px" viewBox="0 0 1024 1024" version="1.1" xmlns="http://www.w3.org/2000/svg"><path fill="#333333" d="M549.184 32c84.704 0 153.6 70.048 153.6 156.16V313.6l211.104 166.528c12.512 9.888 19.84 25.056 19.84 41.152v366.592H972.8c28.288 0 51.2 23.296 51.2 52.032 0 28.768-22.912 52.064-51.2 52.064H51.2C22.912 992 0 968.704 0 939.936c0-28.736 22.912-52.032 51.2-52.032h39.072V188.16c0-86.112 68.896-156.16 153.6-156.16z m0 104.096h-305.28c-28.256 0-51.232 23.36-51.232 52.064v699.744h407.68V188.16c0-28.704-22.944-52.064-51.2-52.064z m153.6 309.28v442.528h128.544v-341.12l-128.544-101.408z m-200.128 224.544c13.984 0 25.344 11.52 25.344 25.728v54.4a25.536 25.536 0 0 1-25.344 25.696h-53.472a25.536 25.536 0 0 1-25.312-25.728V695.68c0-14.208 11.328-25.728 25.28-25.728z m-165.44-210.56c13.984 0 25.312 11.52 25.312 25.728v54.368a25.536 25.536 0 0 1-25.28 25.728H283.712a25.536 25.536 0 0 1-25.312-25.728v-54.4c0-14.176 11.328-25.696 25.28-25.696z m165.44 0c13.984 0 25.344 11.52 25.344 25.728v54.368a25.536 25.536 0 0 1-25.344 25.728h-53.472a25.536 25.536 0 0 1-25.312-25.728v-54.4c0-14.176 11.328-25.696 25.28-25.696z m-165.44-211.104c13.984 0 25.312 11.52 25.312 25.728v54.4a25.536 25.536 0 0 1-25.28 25.728H283.712a25.536 25.536 0 0 1-25.312-25.728v-54.4c0-14.208 11.328-25.728 25.28-25.728z m165.44 0c13.984 0 25.344 11.52 25.344 25.728v54.4a25.536 25.536 0 0 1-25.344 25.728h-53.472a25.536 25.536 0 0 1-25.312-25.728v-54.4c0-14.208 11.328-25.728 25.28-25.728z"  /></svg>