<?xml version="1.0" standalone="no"?><!DOCTYPE svg PUBLIC "-//W3C//DTD SVG 1.1//EN" "http://www.w3.org/Graphics/SVG/1.1/DTD/svg11.dtd"><svg class="icon" width="128px" height="128.00px" viewBox="0 0 1024 1024" version="1.1" xmlns="http://www.w3.org/2000/svg"><path fill="#333333" d="M764.16 32c85.952 0 155.84 70.464 155.84 157.088v731.104h52.48c28.48 0 51.52 23.232 51.52 51.904 0 28.672-23.04 51.904-51.52 51.904H51.52C23.04 1024 0 1000.768 0 972.096c0-28.672 23.04-51.904 51.52-51.904h52.448V189.088C103.968 102.464 173.888 32 259.808 32zM512 679.904c-45.664 0-82.816 37.44-82.816 83.424v156.864h165.6v-156.864c0-45.984-37.12-83.424-82.784-83.424z m252.16-544.096H259.808a53.12 53.12 0 0 0-52.832 53.28v731.104h119.2v-156.864c0-103.264 83.36-187.232 185.824-187.232 102.432 0 185.792 83.968 185.792 187.232v156.864h119.232V189.088a53.12 53.12 0 0 0-52.864-53.28z m-354.24 261.44c28.48 0 51.52 23.264 51.52 51.904 0 28.672-23.04 51.904-51.52 51.904h-69.92c-28.448 0-51.52-23.232-51.52-51.904 0-28.64 23.072-51.904 51.52-51.904z m274.048 0c28.448 0 51.52 23.264 51.488 51.904 0 28.672-23.04 51.904-51.52 51.904h-69.92c-28.448 0-51.52-23.232-51.52-51.904 0-28.64 23.072-51.904 51.52-51.904zM409.92 218.464c28.448 0 51.488 23.264 51.488 51.904 0 28.672-23.04 51.904-51.52 51.904h-69.92c-28.448 0-51.52-23.232-51.52-51.904 0-28.64 23.072-51.904 51.52-51.904z m274.016 0c28.448 0 51.52 23.264 51.488 51.904 0 28.672-23.04 51.904-51.52 51.904h-69.92c-28.448 0-51.52-23.232-51.52-51.904 0-28.64 23.072-51.904 51.52-51.904z"  /></svg>