<?xml version="1.0" standalone="no"?><!DOCTYPE svg PUBLIC "-//W3C//DTD SVG 1.1//EN" "http://www.w3.org/Graphics/SVG/1.1/DTD/svg11.dtd"><svg class="icon" width="128px" height="128.00px" viewBox="0 0 1024 1024" version="1.1" xmlns="http://www.w3.org/2000/svg"><path fill="#333333" d="M232.736 40.704a150.496 150.496 0 0 1 205.856 0l119.264 110.336a154.752 154.752 0 0 1 49.44 113.408v80.832l38.528-35.84a152.128 152.128 0 0 1 206.432 0l90.624 84.256A154.88 154.88 0 0 1 992 506.88v364.992C992 955.744 924.384 1024 841.28 1024H214.72C131.584 1024 64 955.744 64 871.84V264.48A154.88 154.88 0 0 1 113.44 151.04zM335.648 102.4c-12.352 0-24.704 4.576-34.56 13.664L181.824 226.4c-10.56 9.76-16.576 23.616-16.576 38.08v607.36c0 27.52 22.176 49.92 49.44 49.92h291.36V264.512c0-14.464-6.048-28.32-16.544-38.08l-119.328-110.336A50.752 50.752 0 0 0 335.68 102.4z m448.032 282.24a51.072 51.072 0 0 0-69.28 0l-90.624 84.256a52 52 0 0 0-16.48 37.952v414.944h234.016c27.264 0 49.44-22.4 49.44-49.92V506.816c0-14.4-6.016-28.224-16.48-37.952zM362.08 729.984c13.824 0 25.024 11.296 25.024 25.28v53.376c0 13.952-11.2 25.28-25.024 25.28H309.216a25.152 25.152 0 0 1-25.056-25.28v-53.376c0-13.984 11.2-25.28 25.056-25.28z m413.408 0c13.824 0 25.024 11.296 25.024 25.28v53.376c0 13.952-11.2 25.28-25.024 25.28H722.56a25.152 25.152 0 0 1-25.024-25.28v-53.376c0-13.984 11.2-25.28 25.024-25.28z m-413.408-217.216c13.824 0 25.024 11.328 25.024 25.28v53.376c0 13.984-11.2 25.28-25.024 25.28H309.216a25.152 25.152 0 0 1-25.056-25.28v-53.376c0-13.952 11.2-25.28 25.056-25.28z m413.408 0c13.824 0 25.024 11.328 25.024 25.28v53.376c0 13.984-11.2 25.28-25.024 25.28H722.56a25.152 25.152 0 0 1-25.024-25.28v-53.376c0-13.952 11.2-25.28 25.024-25.28zM362.08 295.584c13.824 0 25.024 11.296 25.024 25.28v53.376c0 13.952-11.2 25.28-25.024 25.28H309.216a25.152 25.152 0 0 1-25.056-25.28v-53.408c0-13.952 11.2-25.28 25.056-25.28z"  /></svg>