<?xml version="1.0" standalone="no"?><!DOCTYPE svg PUBLIC "-//W3C//DTD SVG 1.1//EN" "http://www.w3.org/Graphics/SVG/1.1/DTD/svg11.dtd"><svg class="icon" width="128px" height="128.00px" viewBox="0 0 1024 1024" version="1.1" xmlns="http://www.w3.org/2000/svg"><path fill="#333333" d="M332.35296 32l5.088 0.256c11.744 1.184 22.784 6.464 31.2 15.04 9.6 9.728 14.976 23.008 14.912 36.8l-0.64 136.128 231.04-91.04a50.624 50.624 0 0 1 47.712 5.728c13.984 9.824 22.24 26.048 22.048 43.264l-0.512 40 216.16-88.704a50.464 50.464 0 0 1 47.808 5.056c14.144 9.632 22.592 25.76 22.592 43.008v710.72h3.04c28.256 0 51.2 23.232 51.2 51.872A51.52 51.52 0 0 1 972.80096 992H51.20096A51.52 51.52 0 0 1 0.00096 940.16c0-28.672 22.912-51.904 51.2-51.904h3.008V83.904c0-28.64 22.944-51.84 51.2-51.84L332.35296 32zM280.89696 135.744l-124.288 0.032V888.32h710.72V254.528L650.24096 343.68a50.496 50.496 0 0 1-48.128-5.248 52.096 52.096 0 0 1-22.304-43.456l0.512-41.184-230.4 90.752a50.688 50.688 0 0 1-47.52-5.6 52.064 52.064 0 0 1-22.208-43.008l0.736-160.16z m150.56 305.152c28.256 0 51.2 23.232 51.2 51.84v175.072a51.52 51.52 0 0 1-51.2 51.872h-172.8a51.52 51.52 0 0 1-51.2-51.84v-175.072c0-28.64 22.912-51.84 51.2-51.84z m331.616 0c28.256 0 51.2 23.232 51.2 51.84v175.072a51.52 51.52 0 0 1-51.2 51.872h-172.8a51.52 51.52 0 0 1-51.2-51.84v-175.072c0-28.64 22.912-51.84 51.2-51.84zM380.25696 544.64h-70.4v71.328h70.4v-71.36z m331.616 0h-70.4v71.328h70.4v-71.36z"  /></svg>