<?xml version="1.0" standalone="no"?><!DOCTYPE svg PUBLIC "-//W3C//DTD SVG 1.1//EN" "http://www.w3.org/Graphics/SVG/1.1/DTD/svg11.dtd"><svg class="icon" width="128px" height="128.00px" viewBox="0 0 1024 1024" version="1.1" xmlns="http://www.w3.org/2000/svg"><path fill="#333333" d="M617.408 40.672a150.496 150.496 0 0 1 205.856 0l119.296 110.336A154.944 154.944 0 0 1 992 264.448v607.392C992 955.744 924.384 1024 841.28 1024H214.72C131.584 1024 64 955.744 64 871.84V506.88c0-42.848 17.92-84.096 49.12-113.152l90.624-84.224a152.16 152.16 0 0 1 206.432 0l38.528 35.776V264.448c0-43.008 18.016-84.352 49.408-113.44z m137.472 75.392a50.56 50.56 0 0 0-69.088 0l-119.264 110.304c-10.56 9.76-16.608 23.648-16.608 38.08v657.344h291.36c27.296 0 49.472-22.4 49.472-49.92V264.448c0-14.464-6.016-28.288-16.608-38.08z m-447.936 255.04c-12.48 0-24.928 4.48-34.624 13.536l-90.592 84.224a52.064 52.064 0 0 0-16.512 37.984v365.024c0 27.52 22.176 49.92 49.472 49.92h233.984V506.848c0-14.368-6.016-28.224-16.48-37.984l-90.592-84.224a50.624 50.624 0 0 0-34.656-13.568z m413.408-74.688a50.88 50.88 0 0 1 50.624 51.104v434.432a50.88 50.88 0 0 1-50.624 51.104 50.88 50.88 0 0 1-50.624-51.104V347.52a50.88 50.88 0 0 1 50.624-51.104z m-413.408 250.88a50.88 50.88 0 0 1 50.624 51.104v183.552a50.88 50.88 0 0 1-50.624 51.104 50.88 50.88 0 0 1-50.592-51.104V598.4a50.88 50.88 0 0 1 50.592-51.104z"  /></svg>