<?xml version="1.0" standalone="no"?><!DOCTYPE svg PUBLIC "-//W3C//DTD SVG 1.1//EN" "http://www.w3.org/Graphics/SVG/1.1/DTD/svg11.dtd"><svg class="icon" width="128px" height="128.00px" viewBox="0 0 1024 1024" version="1.1" xmlns="http://www.w3.org/2000/svg"><path fill="#333333" d="M972.80064 920.448h-4.352v-217.44c0-85.44-68.736-155.008-153.248-155.008h-41.6v-51.936c0-53.344-27.968-103.68-73.024-131.424L591.04064 297.216a151.904 151.904 0 0 0-27.808-13.44V204.224h34.624c28.288 0 51.2-23.168 51.2-51.776a51.52 51.52 0 0 0-51.2-51.776H563.20064v-16.864A51.52 51.52 0 0 0 512.00064 32c-28.288 0-51.2 23.2-51.2 51.776v16.864h-34.656c-28.256 0-51.2 23.2-51.2 51.808a51.52 51.52 0 0 0 51.2 51.776H460.80064v79.552c-9.6 3.488-18.88 7.968-27.84 13.44l-109.568 67.424A155.104 155.104 0 0 0 250.36864 496v51.968h-41.6c-84.48 0-153.216 69.536-153.216 155.008v217.408H51.20064c-28.288 0-51.2 23.2-51.2 51.808A51.52 51.52 0 0 0 51.20064 1024h921.6c28.288 0 51.2-23.2 51.2-51.776a51.52 51.52 0 0 0-51.2-51.776zM157.95264 703.008a51.2 51.2 0 0 1 50.816-51.424h41.6v268.864H157.95264v-217.44z m194.816-103.2v-103.744c0-17.44 9.152-33.888 23.872-42.912l109.568-67.424a48.928 48.928 0 0 1 51.584 0l109.568 67.424c14.72 9.024 23.872 25.472 23.872 42.88v424.416h-109.504V700.48a51.52 51.52 0 0 0-51.2-51.808c-28.288 0-51.2 23.2-51.2 51.808v219.936h-106.528v-320.64z m420.832 320.64v-268.864h41.6a51.2 51.2 0 0 1 50.88 51.424v217.44h-92.48z"  /></svg>