<?xml version="1.0" standalone="no"?><!DOCTYPE svg PUBLIC "-//W3C//DTD SVG 1.1//EN" "http://www.w3.org/Graphics/SVG/1.1/DTD/svg11.dtd"><svg class="icon" width="128px" height="128.00px" viewBox="0 0 1024 1024" version="1.1" xmlns="http://www.w3.org/2000/svg"><path fill="#333333" d="M940.16 921.088h-90.304v-129.856c0-28.416-23.264-51.456-51.904-51.456H709.44L661.216 149.44a51.2 51.2 0 0 0-13.92-31.04L549.856 15.488c-19.616-20.704-56.064-20.704-75.68 0L376.736 118.4a51.2 51.2 0 0 0-13.888 31.072L314.56 739.776H226.08c-28.64 0-51.872 23.04-51.872 51.456v129.888H83.904c-28.672 0-51.904 23.04-51.904 51.424C32 1000.96 55.232 1024 83.904 1024h856.192c28.672 0 51.904-23.04 51.904-51.456 0-28.416-23.2-51.456-51.84-51.456zM464.8 175.712l47.2-49.824 47.2 49.824L605.12 737.28h-186.176l45.888-561.536zM277.984 921.088v-78.432h468.064v78.432H277.984z"  /></svg>