<?xml version="1.0" standalone="no"?><!DOCTYPE svg PUBLIC "-//W3C//DTD SVG 1.1//EN" "http://www.w3.org/Graphics/SVG/1.1/DTD/svg11.dtd"><svg class="icon" width="128px" height="127.50px" viewBox="0 0 1028 1024" version="1.1" xmlns="http://www.w3.org/2000/svg"><path fill="#333333" d="M779.87136 0C845.24736 0 898.27136 52.352 898.27136 116.928v103.968h74.272a53.728 53.728 0 1 1 0 107.456L936.67136 328.32v556.224h35.872a53.728 53.728 0 1 1 0 107.456H56.03136a53.728 53.728 0 0 1 0-107.456H59.87136V328.32h-3.872a53.728 53.728 0 1 1 0-107.424H117.47136V116.928C117.47136 52.352 170.49536 0 235.87136 0h544z m48 328.32H168.67136v556.224h83.2v-350.08a54.4 54.4 0 1 1 108.8 0v350.08h83.2v-350.08a54.4 54.4 0 1 1 108.8 0v350.08h83.2v-350.08a54.4 54.4 0 1 1 108.8 0v350.08h83.2V328.32z m-48-220.864h-544c-5.312 0-9.6 4.224-9.6 9.472v103.968h563.2V116.928a9.536 9.536 0 0 0-9.6-9.472z"  /></svg>