<?xml version="1.0" standalone="no"?><!DOCTYPE svg PUBLIC "-//W3C//DTD SVG 1.1//EN" "http://www.w3.org/Graphics/SVG/1.1/DTD/svg11.dtd"><svg class="icon" width="128px" height="128.00px" viewBox="0 0 1024 1024" version="1.1" xmlns="http://www.w3.org/2000/svg"><path fill="#333333" d="M940.078342 921.188241h-229.654527l-49.149973-872.604005A51.325883 51.325883 0 0 0 636.474865 7.497931a52.509834 52.509834 0 0 0-48.126014-3.071874l-194.871962 85.948455a51.421879 51.421879 0 0 0-30.718733 43.806193L313.92817 921.188241H83.921658c-28.670817 0-51.901859 23.03905-51.901859 51.38988C32.019799 1000.992949 55.250841 1024 83.921658 1024h856.156684c28.670817 0 51.901859-23.03905 51.901859-51.421879s-23.231042-51.38988-51.901859-51.38988z m-522.218459 0l46.55808-749.537082 97.403982-42.974227 44.638159 792.511309h-188.600221z"  /></svg>