<?xml version="1.0" standalone="no"?><!DOCTYPE svg PUBLIC "-//W3C//DTD SVG 1.1//EN" "http://www.w3.org/Graphics/SVG/1.1/DTD/svg11.dtd"><svg class="icon" width="128px" height="128.00px" viewBox="0 0 1024 1024" version="1.1" xmlns="http://www.w3.org/2000/svg"><path fill="#333333" d="M82.786951 1024A51.039649 51.039649 0 0 1 32.0033 972.800352V148.39002C32.0033 98.022366 55.715137 51.526686 95.490864 24.102874A131.615095 131.615095 0 0 1 219.970008 9.286976l336.093689 131.295097c56.79961 22.175848 94.847348 80.223448 94.847348 144.607006l-0.032 79.743452h195.038659c80.639446 0 146.078996 68.799527 146.078996 153.214947V972.800352c0 28.351805-22.783843 51.199648-50.783651 51.199648H82.786951zM549.439743 285.06108c0-22.399846-12.031917-42.079711-30.079794-49.087662l-336.093689-131.199098a31.327785 31.327785 0 0 0-30.303792 3.839973c-12.159916 8.415942-19.327867 23.359839-19.327867 39.903726v773.114685h415.805142V285.06108z m296.445962 182.270747h-194.878661V921.600704h239.422354V518.147478c0-28.095807-20.031862-50.815651-44.543693-50.815651z m-413.597157 190.398691c27.967808 0 50.751651 22.975842 50.751651 51.199648 0 28.223806-22.655844 51.199648-50.751651 51.199648H255.809761a51.039649 51.039649 0 0 1-50.783651-51.199648c0-28.223806 22.783843-51.199648 50.783651-51.199648h176.510787z m0-292.797987c27.967808 0 50.751651 22.975842 50.751651 51.199648 0 28.223806-22.655844 51.199648-50.751651 51.199648H255.809761a51.039649 51.039649 0 0 1-50.783651-51.199648c0-28.223806 22.783843-51.199648 50.783651-51.199648h176.510787z"  /></svg>