<?xml version="1.0" standalone="no"?><!DOCTYPE svg PUBLIC "-//W3C//DTD SVG 1.1//EN" "http://www.w3.org/Graphics/SVG/1.1/DTD/svg11.dtd"><svg class="icon" width="128px" height="128.00px" viewBox="0 0 1024 1024" version="1.1" xmlns="http://www.w3.org/2000/svg"><path fill="#333333" d="M1022.984 134.464c5.504 26.176-10.848 48.032-36.928 57.568l-39.136 13.536v593.344h17.216c25.056 0 45.6 19.424 47.808 44.16l0.192 4.384c0 26.784-21.44 48.544-48 48.544H51.496c-26.56 0-48-21.76-48-48.544 0-26.784 21.44-48.544 48-48.544h21.312V452.096l-14.72 3.2a47.936 47.936 0 0 1-55.904-33.12l-1.088-4.288a48.544 48.544 0 0 1 36.928-57.568l928-263.232a48 48 0 0 1 56.96 37.376z m-172.064 94.72l-682.144 198.4v371.328l93.6-0.032v-240.032c0-35.584 28.576-64.544 63.68-64.544h366.88c35.104 0 63.68 28.96 63.68 64.544l-0.032 240.032h94.336V229.184z m-177.664 503.68H345.736v66.016h327.52v-66.016z m0-154.08H345.736v69.6h327.52v-69.6z"  /></svg>