<?xml version="1.0" standalone="no"?><!DOCTYPE svg PUBLIC "-//W3C//DTD SVG 1.1//EN" "http://www.w3.org/Graphics/SVG/1.1/DTD/svg11.dtd"><svg class="icon" width="128px" height="128.00px" viewBox="0 0 1024 1024" version="1.1" xmlns="http://www.w3.org/2000/svg"><path fill="#333333" d="M512 64c27.424 0 49.664 22.016 49.664 49.216v65.184h65.92c13.856 0 27.072 5.76 36.48 15.84 9.408 10.112 14.144 23.68 13.024 37.344-0.992 12.512-2.24 37.888-2.56 69.696-0.256 20.64-0.096 41.664 0.512 62.976h68.128c27.424 0 49.664 22.016 49.664 49.216 0 27.2-22.24 49.184-49.664 49.184h-62.048l0.128 1.28c7.264 74.464 20 142.08 38.88 200.64l138.624-0.064c27.424 0 49.664 22.016 49.664 49.216 0 27.2-22.24 49.216-49.664 49.216h-95.936c12.8 22.048 27.04 41.728 42.88 58.784 44.544 48.032 98.784 71.488 166.272 71.84h2.464c27.36 0.064 49.568 22.08 49.568 49.216 0 27.168-22.176 49.152-49.6 49.216l-15.072-0.032h-6.336l-13.536-0.032h-15.424l-8.704-0.032a320483.2 320483.2 0 0 0-396.768-0.384h-92.384l-90.88 0.032-43.2 0.032c-91.904 0.064-173.024 0.224-242.24 0.416-27.52 0-49.76-21.92-49.856-49.056-0.096-27.2 22.08-49.28 49.504-49.376 67.392-0.192 121.632-23.456 166.336-71.36a328.32 328.32 0 0 0 43.424-59.264H165.248a49.44 49.44 0 0 1-49.664-49.216c0-27.2 22.24-49.216 49.664-49.216l136.992 0.032c19.04-58.464 32-125.984 39.552-200.384l0.128-1.504H280.832a49.44 49.44 0 0 1-49.664-49.184c0-27.2 22.24-49.216 49.664-49.216h67.584c0.672-21.312 0.96-42.368 0.768-63.04a1143.264 1143.264 0 0 0-2.304-69.824 48.96 48.96 0 0 1 13.12-37.216 49.888 49.888 0 0 1 36.416-15.744l65.888-0.032 0.032-65.184C462.336 86.016 484.576 64 512 64z m147.104 698.944h-296c-20.64 45.344-46.528 87.04-78.88 121.696-4.736 5.12-9.664 10.048-14.72 14.848l74.272-0.032h205.6c73.216 0 142.56 0.064 203.168 0.128a352.032 352.032 0 0 1-15.424-15.648c-32.032-34.56-57.6-75.968-78.016-120.992z m-71.584-300.256h-151.936c-6.112 64-17.216 134.24-36.64 201.856h224.576c-19.2-67.616-30.08-137.856-36-201.856z m-5.568-192.16h-140.096c0.704 24.096 1.024 56.288-0.128 93.728h140a1573.76 1573.76 0 0 1 0.224-93.76z"  /></svg>