<?xml version="1.0" standalone="no"?><!DOCTYPE svg PUBLIC "-//W3C//DTD SVG 1.1//EN" "http://www.w3.org/Graphics/SVG/1.1/DTD/svg11.dtd"><svg class="icon" width="128px" height="128.00px" viewBox="0 0 1024 1024" version="1.1" xmlns="http://www.w3.org/2000/svg"><path fill="#333333" d="M508.704 64c83.36 0 151.104 67.008 151.104 149.44v677.248h122.72v-116.224c-59.84-20.928-102.752-77.44-102.752-143.616 0-83.904 69.12-152.256 153.984-152.256s153.984 68.352 153.984 152.256c0 66.208-42.944 122.688-102.752 143.616l-0.032 116.224 87.84 0.032c28.288 0 51.2 22.656 51.2 50.624 0 28-22.912 50.656-51.2 50.656H51.2C22.912 992 0 969.344 0 941.344c0-25.6 19.232-46.784 44.224-50.144V213.44C44.256 131.008 112 64 195.424 64h313.28z m0.096 101.28H195.392c-26.944 0-48.704 21.664-48.704 48.16v677.28h410.816V213.44c0-26.624-21.888-48.16-48.704-48.16z m-66.72 443.136c28.288 0 51.2 22.656 51.2 50.656 0 27.968-22.912 50.624-51.2 50.624H267.136c-28.288 0-51.2-22.656-51.2-50.624 0-28 22.912-50.656 51.2-50.656h174.944z m391.68-28.544c-28.512 0-51.68 22.912-51.68 50.976 0 28.224 23.168 50.976 51.68 50.976 28.384 0 51.52-22.88 51.52-50.976 0.128-28.064-23.04-50.976-51.52-50.976z m-391.68-229.856c28.288 0 51.2 22.688 51.2 50.656s-22.912 50.624-51.2 50.624H267.136c-28.288 0-51.2-22.656-51.2-50.624 0-27.968 22.912-50.656 51.2-50.656h174.944z"  /></svg>