<?xml version="1.0" standalone="no"?><!DOCTYPE svg PUBLIC "-//W3C//DTD SVG 1.1//EN" "http://www.w3.org/Graphics/SVG/1.1/DTD/svg11.dtd"><svg class="icon" width="128px" height="128.00px" viewBox="0 0 1024 1024" version="1.1" xmlns="http://www.w3.org/2000/svg"><path fill="#333333" d="M939.612526 597.507465h-50.431591v-122.975001c0-20.86383-12.095902-39.839676-30.847749-48.415606l-279.805727-127.934961 211.294284-88.255283a53.119568 53.119568 0 0 0 32.415736-49.119601c0-21.503825-12.799896-40.927667-32.415736-49.1196L532.447834 4.200286l-0.223998-0.095999-0.255998-0.096-0.287998-0.127999a47.96761 47.96761 0 0 0-2.527979-0.959992l-0.575996-0.191998a55.999545 55.999545 0 0 0-2.46398-0.767994l-0.479996-0.127999a50.783587 50.783587 0 0 0-5.951951-1.279989l-0.863993-0.096a38.495687 38.495687 0 0 0-2.015984-0.223998l-1.27999-0.095999L513.919984 0.00832a29.439761 29.439761 0 0 0-1.407988 0L511.968 0.00832h-1.055991l-1.343989 0.063999c-0.735994 0-1.439988 0.095999-2.175983 0.127999l-0.703994 0.064a63.711482 63.711482 0 0 0-2.975976 0.383997c-0.159999 0.032-0.319997 0.095999-0.511996 0.095999l-2.463979 0.479996-0.639995 0.159999c-0.799994 0.191998-1.599987 0.383997-2.399981 0.639995l-0.511996 0.127999a48.351607 48.351607 0 0 0-2.751977 0.895992l-0.095999 0.032c-1.951984 0.703994-3.839969 1.535988-5.663954 2.46398l-0.639995 0.319997a49.823595 49.823595 0 0 0-4.799961 2.879977l-0.415997 0.223998-0.095999 0.064a65.695466 65.695466 0 0 0-2.303981 1.663986l-0.927993 0.735994a39.999675 39.999675 0 0 0-3.519971 3.103975l-0.927993 0.895993c-0.639995 0.639995-1.27999 1.27999-1.855985 1.951984l-0.607995 0.703994a44.127641 44.127641 0 0 0-1.311989 1.599987l-0.639995 0.799994a45.855627 45.855627 0 0 0-1.24799 1.663986l-0.447996 0.703994-1.599987 2.399981a53.663564 53.663564 0 0 0-6.815945 17.855855l-0.063999 0.415996a49.1836 49.1836 0 0 0-0.415997 2.55998c0 0.255998-0.063999 0.511996-0.095999 0.735994l-0.191998 2.39998-0.064 0.767994a55.775547 55.775547 0 0 0-0.095999 3.071975v238.622061l-293.917612 134.430908c-18.751848 8.60793-30.81575 27.519776-30.847749 48.415606v122.975001H84.387474c-28.927765 0-52.383574 23.775807-52.383574 53.119569v213.918262C32.0039 952.480581 102.563327 1024 189.282622 1024h205.50233c28.927765 0 52.383574-23.775807 52.383575-53.119568v-105.823141c0-36.383704 25.599792-67.391452 58.271526-70.559426 18.687848-1.759986 36.479704 4.159966 50.143593 16.767863 13.727888 12.639897 21.247827 29.919757 21.247827 48.671605v110.943099c0 29.343762 23.455809 53.119568 52.383575 53.119568h205.50233C921.436673 1024 991.9961 952.480581 991.9961 864.545296v-213.918262c0-29.343762-23.455809-53.119568-52.383574-53.119569zM564.383574 189.190783V132.455244l67.967448 28.351769-67.967448 28.38377z m322.877377 675.354513c0 29.343762-23.583808 53.215568-52.543573 53.215567H681.598622v-57.82353c0-48.319607-20.223836-94.71923-55.519549-127.262966a168.830628 168.830628 0 0 0-130.558939-43.903643c-85.855302 8.319932-153.118756 85.759303-153.118756 176.286567v52.703572H189.282622c-28.959765 0-52.479574-23.871806-52.479574-53.215567V703.682603H187.202639c28.895765 0 52.383574-23.775807 52.383574-53.119569v-141.758848L512 384.325197l272.413787 124.542988v141.758849c0 29.343762 23.455809 53.119568 52.383574 53.119568h50.43159v160.830693z"  /></svg>