<?xml version="1.0" standalone="no"?><!DOCTYPE svg PUBLIC "-//W3C//DTD SVG 1.1//EN" "http://www.w3.org/Graphics/SVG/1.1/DTD/svg11.dtd"><svg class="icon" width="128px" height="128.00px" viewBox="0 0 1024 1024" version="1.1" xmlns="http://www.w3.org/2000/svg"><path fill="#333333" d="M750.908715 11.300431A47.99979 47.99979 0 0 1 767.99664 48.00427v258.27087l186.559184-93.279592A47.99979 47.99979 0 0 1 1023.99552 255.93936V976.00021a47.99979 47.99979 0 0 1-47.99979 47.99979h-927.99594A47.99979 47.99979 0 0 1 0 976.00021V164.003762a47.99979 47.99979 0 0 1 39.839826-47.295793l671.99706-115.999492c13.951939-2.431989 28.255876 1.471994 39.071829 10.559954zM671.99706 104.964021L95.99958 204.483585v723.516835h575.99748V105.028021z m255.99888 228.607l-159.9993 79.99965v514.365749h159.9993V333.63502zM287.99874 448.00252a31.99986 31.99986 0 0 1 31.99986 31.99986v63.99972a31.99986 31.99986 0 0 1-31.99986 31.99986H223.99902a31.99986 31.99986 0 0 1-31.99986-31.99986v-63.99972a31.99986 31.99986 0 0 1 31.99986-31.99986h63.99972z m0-191.99916a31.99986 31.99986 0 0 1 31.99986 31.99986v63.99972a31.99986 31.99986 0 0 1-31.99986 31.99986H223.99902a31.99986 31.99986 0 0 1-31.99986-31.99986v-63.99972a31.99986 31.99986 0 0 1 31.99986-31.99986h63.99972z"  /></svg>