<?xml version="1.0" standalone="no"?><!DOCTYPE svg PUBLIC "-//W3C//DTD SVG 1.1//EN" "http://www.w3.org/Graphics/SVG/1.1/DTD/svg11.dtd"><svg class="icon" width="128px" height="128.00px" viewBox="0 0 1024 1024" version="1.1" xmlns="http://www.w3.org/2000/svg"><path fill="#333333" d="M648.96 64a156.576 156.576 0 0 1 156.288 156.544v138.592h62.496A156.544 156.544 0 0 1 1024 515.68V940.48c0 28.48-23.04 51.552-51.488 51.552H51.52A51.52 51.52 0 0 1 0 940.448V515.68a156.608 156.608 0 0 1 156.32-156.544h62.464v-138.56A156.608 156.608 0 0 1 375.104 64zM218.784 462.272H156.32a53.44 53.44 0 0 0-53.344 53.44v373.152h115.84V462.272zM648.96 167.136h-273.856a53.44 53.44 0 0 0-53.376 53.44v668.288h380.576V220.544c0-29.44-23.936-53.44-53.344-53.44z m218.784 295.136h-62.496v426.592h115.84V515.68c0-29.44-23.936-53.44-53.344-53.44zM512 257.28a51.52 51.52 0 0 1 51.488 51.552v50.272h50.144a51.52 51.52 0 0 1 51.488 51.584c0 28.48-23.04 51.52-51.488 51.52H563.52v50.272a51.52 51.52 0 0 1-102.944 0v-50.24h-50.24a51.52 51.52 0 0 1-51.456-51.552c0-28.48 23.04-51.584 51.488-51.584h50.176v-50.24c0-28.48 23.04-51.584 51.488-51.584z"  /></svg>