<?xml version="1.0" standalone="no"?><!DOCTYPE svg PUBLIC "-//W3C//DTD SVG 1.1//EN" "http://www.w3.org/Graphics/SVG/1.1/DTD/svg11.dtd"><svg class="icon" width="128px" height="128.00px" viewBox="0 0 1024 1024" version="1.1" xmlns="http://www.w3.org/2000/svg"><path fill="#333333" d="M972.8 891.232h-6.848V350.272c0-17.984-9.728-34.624-25.6-43.616L525.248 70.752a52 52 0 0 0-58.112 4.672L193.888 296.576c-11.84 9.6-18.656 23.84-18.656 38.912v171.488l-105.12 79.36c-12.64 9.536-20.032 24.32-20.032 40v265.024c-27.744 0.64-50.08 22.816-50.08 50.24C0 969.472 22.912 992 51.2 992h921.6c28.256 0 51.2-22.56 51.2-50.368 0-27.84-22.944-50.4-51.2-50.4z m-109.248 0h-168.736v-306.56c0-19.52-11.456-37.28-29.408-45.568l-112.64-52.064V202.72l310.816 176.608v511.904zM394.304 525.024l78.112 36.16c4.352 2.944 9.216 5.088 14.4 6.624l105.6 48.864v274.56h-198.08V525.056z m-116.704-165.76l172.8-139.84v220.256l-87.136-40.32a51.904 51.904 0 0 0-52.96 5.6l-32.672 24.672v-70.368z m14.304 186.56v345.408H152.448v-240.096l139.456-105.28z"  /></svg>