<?xml version="1.0" standalone="no"?><!DOCTYPE svg PUBLIC "-//W3C//DTD SVG 1.1//EN" "http://www.w3.org/Graphics/SVG/1.1/DTD/svg11.dtd"><svg class="icon" width="128px" height="128.00px" viewBox="0 0 1024 1024" version="1.1" xmlns="http://www.w3.org/2000/svg"><path fill="#333333" d="M940.032 346.784c28.672 0 51.968-23.2 51.968-51.776v-243.2C992 23.168 968.704 0 940.032 0H83.968C55.264 0 32 23.2 32 51.776v243.2c0 28.608 23.264 51.84 51.968 51.84h51.968v573.6H83.968c-28.704 0-51.968 23.2-51.968 51.808C32 1000.8 55.264 1024 83.968 1024h856.064c28.704 0 51.968-23.2 51.968-51.776 0-28.608-23.264-51.808-51.968-51.808h-44.288V346.784h44.288z m-804.096-243.2h752.128V243.2H135.936V103.584z m307.744 816.832V767.04c0-37.568 30.624-68.096 68.32-68.096 37.664 0 68.288 30.528 68.288 68.096v153.408h-136.64z m348.16 0h-107.616V767.04c0-94.656-77.248-171.648-172.224-171.648-94.976 0-172.256 77.024-172.256 171.648v153.408H239.84V346.784h552v573.632z"  /></svg>