<?xml version="1.0" standalone="no"?><!DOCTYPE svg PUBLIC "-//W3C//DTD SVG 1.1//EN" "http://www.w3.org/Graphics/SVG/1.1/DTD/svg11.dtd"><svg class="icon" width="128px" height="128.00px" viewBox="0 0 1024 1024" version="1.1" xmlns="http://www.w3.org/2000/svg"><path fill="#333333" d="M940.032 920.416h-44.288v-470.08h44.288c17.024 0 32.96-8.32 42.656-22.24 9.728-13.952 11.968-31.744 6.016-47.648l-129.92-346.784A51.936 51.936 0 0 0 810.176 0H213.824C192.16 0 172.8 13.44 165.184 33.664L35.264 380.48a51.648 51.648 0 0 0 6.016 47.616c9.728 13.952 25.664 22.272 42.688 22.272h51.968v470.08H83.968c-28.704 0-51.968 23.168-51.968 51.776C32 1000.8 55.264 1024 83.968 1024h856.064c28.704 0 51.968-23.2 51.968-51.776 0-28.608-23.296-51.808-51.968-51.808zM249.92 103.584h524.096l91.104 243.2H158.816l91.136-243.2z m-10.112 346.752h552v470.08h-107.616V767.04c0-94.624-77.28-171.648-172.224-171.648-94.976 0-172.256 77.024-172.256 171.648v153.408H239.84v-470.08z m203.84 470.08V767.04c0-37.536 30.624-68.096 68.32-68.096 37.632 0 68.288 30.56 68.288 68.096v153.408h-136.64z"  /></svg>