<?xml version="1.0" standalone="no"?><!DOCTYPE svg PUBLIC "-//W3C//DTD SVG 1.1//EN" "http://www.w3.org/Graphics/SVG/1.1/DTD/svg11.dtd"><svg class="icon" width="128px" height="128.00px" viewBox="0 0 1024 1024" version="1.1" xmlns="http://www.w3.org/2000/svg"><path fill="#333333" d="M285.113674 6.838568l205.115449 114.557459c16.991623 9.47179 27.519389 27.423392 27.519389 46.878959v211.259313h373.431715A132.733055 132.733055 0 0 1 1023.977281 512.235355v379.095589A132.733055 132.733055 0 0 1 891.180227 1024H448.566047a38.399148 38.399148 0 0 1-4.287904-0.255994H53.758807c-29.695341 0-53.758807-24.063466-53.758807-53.694809V168.274986c0-19.455568 10.559766-37.40717 27.519389-46.878959L232.666838 6.838568a53.758807 53.758807 0 0 1 52.446836 0z m233.01883 480.117348v429.622467H891.180227c13.95169 0 25.279439-11.327749 25.279439-25.279439V512.267354a25.311438 25.311438 0 0 0-25.279439-25.279439H518.132504zM258.874256 115.220164L107.517614 199.730288v716.592101h302.745283V199.762288L258.874256 115.220164z m540.724003 649.617586c27.647387 0 50.142887 22.719496 50.142887 50.558878 0 27.871382-22.399503 50.558878-50.142887 50.558879h-174.396131a50.430881 50.430881 0 0 1-50.174886-50.558879c0-27.839382 22.5275-50.558878 50.174886-50.558878h174.396131z m0-189.627792c27.647387 0 50.142887 22.719496 50.142887 50.558878 0 27.871382-22.399503 50.558878-50.142887 50.558878h-174.396131a50.430881 50.430881 0 0 1-50.174886-50.558878c0-27.839382 22.5275-50.558878 50.174886-50.558878h174.396131z m-474.229478 0c27.647387 0 50.142887 22.719496 50.142887 50.558878 0 27.871382-22.399503 50.558878-50.142887 50.558878H182.587949a50.430881 50.430881 0 0 1-50.174887-50.558878c0-27.839382 22.5275-50.558878 50.174887-50.558878h142.780832z m0-284.441689c27.647387 0 50.142887 22.719496 50.142887 50.558878 0 27.871382-22.399503 50.558878-50.142887 50.558878H182.587949a50.430881 50.430881 0 0 1-50.174887-50.558878c0-27.839382 22.5275-50.558878 50.174887-50.558878h142.780832z"  /></svg>